<?xml version="1.0" encoding="UTF-8" standalone="no"?>
<svg
   xmlns:dc="http://purl.org/dc/elements/1.1/"
   xmlns:cc="http://creativecommons.org/ns#"
   xmlns:rdf="http://www.w3.org/1999/02/22-rdf-syntax-ns#"
   xmlns:svg="http://www.w3.org/2000/svg"
   xmlns="http://www.w3.org/2000/svg"
   xmlns:xlink="http://www.w3.org/1999/xlink"
   xmlns:sodipodi="http://sodipodi.sourceforge.net/DTD/sodipodi-0.dtd"
   xmlns:inkscape="http://www.inkscape.org/namespaces/inkscape"
   width="1607.031494pt"
   height="1004.385864pt"
   viewBox="0 0 1607.031494 1004.385864"
   version="1.1"
   id="svg5407"
   inkscape:version="0.91 r13725"
   sodipodi:docname="background.svg">
  <metadata
     id="metadata5468">
    <rdf:RDF>
      <cc:Work
         rdf:about="">
        <dc:format>image/svg+xml</dc:format>
        <dc:type
           rdf:resource="http://purl.org/dc/dcmitype/StillImage" />
        <dc:title />
      </cc:Work>
    </rdf:RDF>
  </metadata>
  <sodipodi:namedview
     pagecolor="#ffffff"
     bordercolor="#666666"
     borderopacity="1"
     objecttolerance="10"
     gridtolerance="10"
     guidetolerance="10"
     inkscape:pageopacity="0"
     inkscape:pageshadow="2"
     inkscape:window-width="1438"
     inkscape:window-height="1063"
     id="namedview5466"
     showgrid="false"
     inkscape:zoom="0.16925617"
     inkscape:cx="1792.1337"
     inkscape:cy="-723.94892"
     inkscape:window-x="0"
     inkscape:window-y="15"
     inkscape:window-maximized="0"
     inkscape:current-layer="svg5407" />
  <defs
     id="defs5409">
    <clipPath
       id="clip1">
      <path
         d="M 0 0 L 1607.03125 0 L 1607.03125 1004.386719 L 0 1004.386719 Z M 0 0 "
         id="path5412" />
    </clipPath>
    <filter
       id="alpha"
       filterUnits="objectBoundingBox"
       x="0%"
       y="0%"
       width="100%"
       height="100%">
      <feColorMatrix
         type="matrix"
         in="SourceGraphic"
         values="0 0 0 0 1 0 0 0 0 1 0 0 0 0 1 0 0 0 1 0"
         id="feColorMatrix5415" />
    </filter>
    <clipPath
       id="clip3">
      <path
         d="M 0 0 L 1607.03125 0 L 1607.03125 1004.386719 L 0 1004.386719 Z M 0 0 "
         id="path5418" />
    </clipPath>
    <clipPath
       id="clip2">
      <rect
         width="1608"
         height="1005"
         id="rect5421" />
    </clipPath>
    <g
       id="surface31262"
       clip-path="url(#clip2)">
      <g
         clip-path="url(#clip3)"
         clip-rule="nonzero"
         id="g5424">
        <rect
           x="0"
           y="0"
           width="1608"
           height="1005"
           style="fill:rgb(0%,0%,0%);fill-opacity:0.98;stroke:none;"
           id="rect5426" />
      </g>
    </g>
    <mask
       id="mask0">
      <g
         filter="url(#alpha)"
         id="g5429">
        <use
           xlink:href="#surface31262"
           id="use5431" />
      </g>
    </mask>
    <clipPath
       id="clip5">
      <path
         d="M 0 0 L 1607.03125 0 L 1607.03125 1004.386719 L 0 1004.386719 Z M 0 0 "
         id="path5434" />
    </clipPath>
    <clipPath
       id="clip6">
      <path
         d="M 1221 603 L 1607.03125 603 L 1607.03125 1004.386719 L 1221 1004.386719 Z M 1221 603 "
         id="path5437" />
    </clipPath>
    <clipPath
       id="clip4">
      <rect
         width="1608"
         height="1005"
         id="rect5440" />
    </clipPath>
    <g
       id="surface31259"
       clip-path="url(#clip4)">
      <g
         clip-path="url(#clip5)"
         clip-rule="nonzero"
         id="g5443">
        <path
           style=" stroke:none;fill-rule:nonzero;fill:rgb(13.33313%,21.568298%,22.744751%);fill-opacity:1;"
           d="M 0 0 L 1607.03125 0 L 1607.03125 1004.386719 L 0 1004.386719 Z M 0 0 "
           id="path5445" />
      </g>
      <path
         style=" stroke:none;fill-rule:nonzero;fill:rgb(90.194702%,90.194702%,90.194702%);fill-opacity:1;"
         d="M 1598.554688 925.011719 C 1597.007812 923.464844 1564.988281 953.539062 1564.988281 956.542969 C 1564.988281 958.003906 1567.324219 958.304688 1570.183594 957.207031 C 1577.828125 954.273438 1576.53125 959.65625 1567.550781 968.09375 C 1556.050781 978.898438 1536.195312 986.195312 1518.308594 986.195312 C 1509.667969 986.195312 1502.585938 987.75 1502.585938 989.65625 C 1502.585938 995.121094 1540.195312 993.710938 1552.703125 987.773438 C 1558.914062 984.828125 1568.300781 977.917969 1573.558594 972.429688 C 1578.816406 966.941406 1584.949219 963.152344 1587.1875 964.011719 C 1589.75 964.996094 1592.789062 958.265625 1595.40625 945.792969 C 1597.691406 934.910156 1599.105469 925.5625 1598.554688 925.011719 Z M 1598.554688 925.011719 "
         id="path5447" />
      <path
         style=" stroke:none;fill-rule:nonzero;fill:rgb(0%,0%,0%);fill-opacity:1;"
         d="M 1445.035156 917.574219 C 1446.148438 917.160156 1448.105469 917.25 1450.996094 918.023438 C 1455.542969 919.242188 1469.546875 920.253906 1482.109375 920.285156 L 1504.9375 920.332031 L 1505.386719 932.46875 C 1505.828125 944.128906 1505.371094 944.609375 1493.613281 944.609375 C 1485.25 944.609375 1482.164062 943.339844 1483.855469 940.601562 C 1485.355469 938.175781 1484.8125 937.542969 1482.46875 938.992188 C 1478.648438 941.351562 1475.96875 940.421875 1455.890625 929.804688 C 1446.011719 924.582031 1441.695312 918.820312 1445.035156 917.578125 Z M 1532.644531 920.328125 C 1539.636719 920.328125 1544.703125 920.882812 1543.90625 921.5625 C 1540.007812 924.898438 1519.933594 926.703125 1519.933594 923.71875 C 1519.933594 921.859375 1525.652344 920.328125 1532.644531 920.328125 Z M 1532.644531 920.328125 "
         id="path5449" />
      <path
         style=" stroke:none;fill-rule:nonzero;fill:rgb(90.194702%,90.194702%,90.194702%);fill-opacity:1;"
         d="M 1365.117188 864.777344 C 1364.335938 864.957031 1363.929688 866.179688 1363.929688 868.453125 C 1363.929688 882.175781 1399.226562 934.984375 1422.339844 955.851562 C 1438.070312 970.050781 1439.335938 972.324219 1431.527344 972.324219 C 1420.785156 972.324219 1427.058594 981.261719 1442.867188 988.484375 C 1472.050781 1001.820312 1474.425781 998.71875 1455.332031 972.144531 C 1447.988281 961.917969 1440.84375 955.332031 1438.199219 956.347656 C 1430.871094 959.160156 1397.371094 919.886719 1382.675781 891.265625 C 1373.34375 873.089844 1367.472656 864.238281 1365.117188 864.777344 Z M 1365.117188 864.777344 "
         id="path5451" />
      <path
         style=" stroke:none;fill-rule:nonzero;fill:rgb(90.194702%,90.194702%,90.194702%);fill-opacity:1;"
         d="M 1371.625 719.375 C 1370.820312 719.214844 1369.589844 719.65625 1367.949219 720.667969 C 1363.839844 723.210938 1353.539062 752.617188 1353.539062 761.808594 C 1353.539062 765.5625 1350.480469 769.246094 1346.507812 770.285156 C 1342.074219 771.445312 1340.050781 774.21875 1341.039062 777.769531 C 1341.90625 780.871094 1343.695312 788.867188 1345.015625 795.539062 C 1346.335938 802.210938 1348.164062 808.917969 1349.066406 810.445312 C 1349.96875 811.976562 1352.429688 812.660156 1354.546875 811.953125 C 1357.835938 810.855469 1360.972656 802.085938 1367.828125 774.742188 C 1368.546875 771.882812 1367.183594 769.929688 1364.800781 770.40625 C 1358.222656 771.722656 1359.644531 754.367188 1367.542969 736.960938 C 1372.671875 725.65625 1374.03125 719.855469 1371.625 719.375 Z M 1371.625 719.375 "
         id="path5453" />
      <path
         style=" stroke:none;fill-rule:nonzero;fill:rgb(90.194702%,90.194702%,90.194702%);fill-opacity:1;"
         d="M 1474.367188 710.910156 C 1471.1875 712.875 1498.894531 747.003906 1503.671875 747.007812 C 1505.214844 747.007812 1505.511719 745.449219 1504.332031 743.542969 C 1503.15625 741.636719 1504.191406 740.078125 1506.636719 740.078125 C 1513.757812 740.078125 1548.640625 778.9375 1557.429688 796.652344 C 1564.621094 811.15625 1571.929688 817.839844 1571.929688 809.933594 C 1571.929688 803.199219 1542.53125 762.273438 1526.4375 746.597656 C 1516.882812 737.292969 1510.859375 729.671875 1513.050781 729.671875 C 1515.246094 729.671875 1516.46875 727.980469 1515.777344 725.910156 C 1514.234375 721.277344 1478.523438 708.34375 1474.367188 710.910156 Z M 1474.367188 710.910156 "
         id="path5455" />
      <g
         clip-path="url(#clip6)"
         clip-rule="nonzero"
         id="g5457">
        <path
           style=" stroke:none;fill-rule:nonzero;fill:rgb(90.194702%,90.194702%,90.194702%);fill-opacity:1;"
           d="M 1453.136719 620.199219 L 1452.335938 845.804688 L 1400.339844 845.804688 L 1399.601562 762.605469 C 1399.203125 716.847656 1398.824219 661.773438 1398.746094 640.210938 C 1398.652344 614.992188 1397.359375 601.773438 1395.128906 603.152344 C 1393.222656 604.332031 1391.667969 616.933594 1391.667969 631.160156 C 1391.667969 656.0625 1391.3125 657.175781 1382.136719 661.171875 C 1360.515625 670.585938 1294.34375 713.449219 1284.992188 724.101562 C 1263.917969 748.105469 1253.007812 782.628906 1253.007812 825.292969 L 1253.007812 847.160156 L 1221.835938 854.628906 C 1221.835938 854.628906 1219.890625 857.714844 1222.324219 858.929688 C 1275.773438 864.015625 1248.414062 855.246094 1255.253906 859.027344 C 1257.15625 860.929688 1266.550781 898.96875 1266.742188 905.542969 C 1251.289062 907.433594 1221.835938 918.386719 1221.835938 918.386719 C 1225.761719 924.3125 1240.890625 917.160156 1274.570312 918.597656 L 1280.25 932.648438 C 1295.484375 970.300781 1342.394531 1027.300781 1376.941406 1050.164062 L 1390.929688 1059.425781 L 1390.429688 1105.636719 L 1392.445312 1144.125 L 1399.582031 1137.242188 C 1399.582031 1137.242188 1402.070312 1125.175781 1402.070312 1104.175781 C 1402.070312 1104.175781 1402.410156 1065.316406 1408.125 1067.511719 C 1411.460938 1068.792969 1423.167969 1072.335938 1434.128906 1075.386719 L 1454.066406 1080.925781 L 1454.066406 1106.78125 L 1452.894531 1131.363281 L 1461.050781 1127.234375 C 1460.5 1125.46875 1461.839844 1111.140625 1461.695312 1100.621094 C 1466.464844 1061.867188 1458.179688 1130.214844 1463.375 1092.792969 C 1465.125 1081.273438 1466.476562 1079.796875 1475.242188 1079.796875 C 1490.011719 1079.796875 1540.832031 1084.507812 1573.691406 1063.460938 C 1630.328125 1027.1875 1618.101562 988.757812 1623.597656 937.691406 L 1625.660156 918.597656 L 1665.066406 911.550781 C 1667.082031 907.296875 1651.273438 907.140625 1651.273438 907.140625 C 1604.710938 911.230469 1657.660156 909.9375 1444.054688 909.9375 L 1435.050781 902.136719 C 1424.078125 892.628906 1415.292969 869.0625 1419.675781 860.878906 C 1605.203125 851.996094 1369.863281 844.019531 1616.628906 854.476562 C 1617.320312 850.191406 1616.21875 851.429688 1614.320312 848.273438 L 1598.660156 815.21875 C 1590.046875 797.042969 1577.871094 774.644531 1571.597656 765.453125 C 1546.851562 729.183594 1497.050781 684.617188 1469.609375 674.183594 L 1460.589844 670.75 L 1463.585938 645.359375 C 1458.953125 612.351562 1459.902344 621.929688 1453.136719 620.199219 Z M 1382.132812 671.773438 C 1392.246094 667.683594 1391.929688 678.863281 1390.65625 723.605469 C 1389.832031 752.679688 1387.382812 784.121094 1385.222656 793.460938 C 1374.695312 838.921875 1406.511719 909.070312 1451.359375 939.273438 C 1486.402344 962.871094 1522.464844 963.398438 1543.09375 940.613281 C 1565.347656 916.03125 1563.816406 916.871094 1586.660156 916.925781 C 1616.570312 917 1617.539062 917.964844 1613.371094 943.835938 C 1611.472656 955.640625 1620.503906 977.832031 1618.628906 982.769531 C 1611.484375 1001.550781 1610.074219 1017.519531 1593.398438 1026.597656 C 1512.992188 1070.359375 1362.941406 971.710938 1329.203125 840.59375 C 1323.039062 816.628906 1321.929688 804.667969 1323.269531 776.476562 C 1325.609375 727.316406 1338.066406 700.628906 1368.191406 680.28125 C 1374.230469 676.203125 1378.765625 673.136719 1382.132812 671.773438 Z M 1460.996094 683.851562 L 1470.316406 686.199219 C 1489.328125 690.972656 1530.484375 724.851562 1553.347656 754.566406 C 1570.722656 777.144531 1599.652344 831.390625 1599.652344 841.378906 C 1599.652344 846.582031 1596.484375 847.535156 1579.097656 847.535156 L 1558.542969 847.535156 L 1546.273438 822.027344 C 1531.441406 791.191406 1504.410156 762.523438 1479.050781 750.742188 L 1460.996094 742.351562 Z M 1328.269531 706.828125 C 1328.527344 707.5 1327.25 709.921875 1324.671875 714.707031 C 1313.742188 734.988281 1312.300781 741.964844 1310.816406 781.671875 C 1310.214844 797.875 1311.589844 818.367188 1313.875 827.207031 C 1316.304688 836.605469 1316.785156 845.238281 1315.035156 848.003906 C 1313.386719 850.601562 1312.039062 854.289062 1312.039062 856.195312 C 1312.039062 858.101562 1313.378906 857.546875 1315.019531 854.960938 C 1317.230469 851.472656 1318.652344 851.3125 1320.515625 854.328125 C 1321.898438 856.5625 1322.109375 859.3125 1320.980469 860.441406 C 1319.855469 861.570312 1320.792969 864.753906 1323.074219 867.503906 C 1325.359375 870.253906 1327.554688 874.742188 1327.953125 877.472656 C 1328.355469 880.203125 1331.917969 888.613281 1335.859375 896.175781 C 1339.800781 903.738281 1342.261719 909.9375 1341.328125 909.9375 C 1340.390625 909.9375 1343.914062 914.757812 1349.171875 920.660156 C 1354.429688 926.5625 1358.734375 932.875 1358.734375 934.695312 C 1358.734375 938.230469 1380.652344 966.511719 1395.402344 982.007812 C 1404.992188 992.085938 1450.066406 1025.234375 1455.800781 1026.429688 C 1457.707031 1026.828125 1465.507812 1029.917969 1473.132812 1033.296875 C 1480.757812 1036.675781 1490.117188 1039.949219 1493.929688 1040.570312 C 1497.742188 1041.191406 1507.640625 1042.851562 1515.929688 1044.273438 L 1531.003906 1046.863281 L 1512.464844 1056.910156 C 1497.726562 1064.890625 1488.96875 1067.082031 1469.667969 1067.660156 C 1443.949219 1068.429688 1419.027344 1063.578125 1411.90625 1056.398438 C 1409.542969 1054.011719 1405.191406 1052.050781 1402.238281 1052.042969 C 1399.28125 1052.039062 1391.972656 1047.441406 1385.988281 1041.835938 C 1380.007812 1036.226562 1374.160156 1032.597656 1372.996094 1033.761719 C 1371.828125 1034.929688 1370.871094 1033.960938 1370.871094 1031.625 C 1370.871094 1029.289062 1369.550781 1028.203125 1367.933594 1029.199219 C 1363.796875 1031.757812 1345.933594 1012.34375 1349.15625 1008.796875 C 1350.613281 1007.195312 1350.066406 1006.875 1347.9375 1008.089844 C 1345.808594 1009.304688 1341.121094 1006.945312 1337.53125 1002.847656 C 1333.253906 997.96875 1332.800781 996.375 1336.207031 998.226562 C 1339.066406 999.777344 1334 993.359375 1324.941406 983.964844 C 1309.054688 967.484375 1303.804688 958.859375 1312.804688 963.996094 C 1315.1875 965.359375 1312.542969 961.542969 1306.933594 955.519531 C 1301.324219 949.496094 1296.347656 941.871094 1295.863281 938.578125 C 1295.382812 935.285156 1293.34375 932.035156 1291.332031 931.367188 C 1289.320312 930.695312 1287.671875 927.257812 1287.671875 923.714844 C 1287.671875 920.175781 1286.003906 916.242188 1283.96875 914.980469 C 1281.933594 913.722656 1281.066406 910.613281 1282.042969 908.070312 C 1283.015625 905.527344 1282.324219 902.953125 1280.503906 902.347656 C 1278.6875 901.742188 1276.640625 898.128906 1275.957031 894.320312 C 1273.109375 878.445312 1269.125 859.320312 1267.644531 854.460938 C 1264.070312 842.734375 1266.925781 776.976562 1271.199219 772.710938 C 1272.628906 771.28125 1273.804688 767.449219 1273.804688 764.1875 C 1273.804688 760.925781 1276.140625 756.304688 1279 753.933594 C 1281.859375 751.558594 1284.210938 746.847656 1284.210938 743.464844 C 1284.210938 736.195312 1307.425781 714.753906 1312.144531 717.671875 C 1313.933594 718.777344 1315.394531 718.402344 1315.394531 716.84375 C 1315.394531 715.28125 1318.667969 711.960938 1322.667969 709.464844 C 1326.226562 707.242188 1328.015625 706.160156 1328.269531 706.828125 Z M 1483.582031 769.035156 C 1487.511719 767.527344 1495.105469 772.601562 1508.070312 785.40625 C 1518.402344 795.613281 1526.863281 805.757812 1526.863281 807.949219 C 1526.863281 810.140625 1529.734375 815.660156 1533.246094 820.203125 C 1536.757812 824.753906 1540.511719 831.984375 1541.589844 836.273438 C 1543.496094 843.863281 1542.816406 844.074219 1516.335938 844.074219 C 1501.375 844.074219 1488.179688 842.5 1487 840.59375 C 1485.824219 838.6875 1486.015625 837.128906 1487.4375 837.128906 C 1488.859375 837.128906 1485.625 832.542969 1480.253906 826.9375 C 1473.214844 819.589844 1471.246094 815 1473.191406 810.476562 C 1474.679688 807.027344 1476.058594 800.304688 1476.25 795.539062 C 1476.441406 790.773438 1477.855469 784.925781 1479.398438 782.542969 C 1480.9375 780.160156 1481.230469 776.632812 1480.042969 774.714844 C 1478.859375 772.792969 1480.449219 770.238281 1483.582031 769.035156 Z M 1464.472656 828.457031 C 1466.382812 827.277344 1469.550781 830.523438 1471.507812 835.671875 C 1475.882812 847.183594 1474.03125 849.671875 1466.613281 842.25 C 1460.171875 835.808594 1459.507812 831.527344 1464.472656 828.457031 Z M 1464.472656 828.457031 "
           id="path5459" />
      </g>
    </g>
  </defs>
  <rect
     style="opacity:0.98999999;fill:#213538;fill-opacity:0.97647059;stroke:#000000;stroke-width:2.83464575;stroke-linecap:square;stroke-linejoin:round;stroke-miterlimit:4;stroke-dasharray:none;stroke-opacity:1"
     id="rect4237"
     width="1763.0081"
     height="1153.2815"
     x="-61.445324"
     y="-87.450241"
     ry="13.6728" />
  <g
     id="layer1"
     transform="matrix(7.838154,0,0,7.7371279,-603.95006,-1537.6847)">
    <text
       xml:space="preserve"
       style="font-style:normal;font-variant:normal;font-weight:normal;font-stretch:normal;font-size:10px;line-height:125%;font-family:OCRB;-inkscape-font-specification:OCRB;text-align:center;letter-spacing:0px;word-spacing:0px;text-anchor:middle;fill:#000000;fill-opacity:1;stroke:none;stroke-width:1px;stroke-linecap:butt;stroke-linejoin:miter;stroke-opacity:1"
       x="481.67679"
       y="376.36221"
       id="text5123"
       sodipodi:linespacing="125%"><tspan
         id="tspan5125"
         x="481.67679"
         y="376.36221" /></text>
    <path
       style="fill:#e6e6e6;fill-opacity:0.97647059"
       d="m 281.47586,318.21807 c -0.20089,-0.20089 -4.35351,3.70013 -4.35351,4.08984 0,0.18942 0.3029,0.22829 0.67383,0.0859 0.99119,-0.38035 0.82305,0.31779 -0.3418,1.41211 -1.49156,1.40125 -4.06681,2.34765 -6.38672,2.34765 -1.12075,0 -2.03906,0.20193 -2.03906,0.44922 0,0.70848 4.87787,0.52561 6.5,-0.24414 0.80573,-0.38235 2.02313,-1.27843 2.70508,-1.99023 0.68195,-0.7118 1.47741,-1.20315 1.76758,-1.0918 0.33266,0.12765 0.72701,-0.74523 1.0664,-2.36328 0.29602,-1.41131 0.4797,-2.62381 0.4082,-2.69531 z"
       id="path4855-9"
       inkscape:connector-curvature="0" />
    <path
       style="fill:#000000"
       d="m 261.56376,317.25322 c 0.14435,-0.0537 0.39841,-0.0418 0.77343,0.0586 0.58951,0.15777 2.40602,0.28897 4.03516,0.29297 l 2.96094,0.006 0.0586,1.57422 c 0.0568,1.51236 -0.003,1.57422 -1.52734,1.57422 -1.08472,0 -1.48498,-0.16462 -1.26563,-0.51953 0.19458,-0.31484 0.12406,-0.39671 -0.17969,-0.20898 -0.4955,0.30623 -0.84296,0.1856 -3.44726,-1.19141 -1.28141,-0.67754 -1.84127,-1.42474 -1.4082,-1.58594 z m 11.36328,0.35742 c 0.90673,0 1.56397,0.0721 1.46093,0.16016 -0.50574,0.43254 -3.10937,0.66661 -3.10937,0.2793 0,-0.24111 0.74171,-0.43946 1.64844,-0.43946 z"
       id="path4853-9"
       inkscape:connector-curvature="0" />
    <path
       style="fill:#e6e6e6;fill-opacity:0.97647059"
       d="m 251.19852,310.40557 c -0.10174,0.0234 -0.1543,0.18196 -0.1543,0.47656 0,1.77995 4.57816,8.62941 7.57618,11.33594 2.04002,1.84165 2.20413,2.13671 1.1914,2.13671 -1.39313,0 -0.57966,1.15887 1.4707,2.09571 3.78559,1.72969 4.09324,1.32734 1.61719,-2.11914 -0.95281,-1.32623 -1.87963,-2.18045 -2.22265,-2.04883 -0.9502,0.36463 -5.29543,-4.72935 -7.20118,-8.44141 -1.21041,-2.35766 -1.97212,-3.50578 -2.27734,-3.43554 z"
       id="path4847-3"
       inkscape:connector-curvature="0" />
    <path
       style="fill:#e6e6e6;fill-opacity:0.97647059"
       d="m 252.04227,291.54619 c -0.10407,-0.0208 -0.26398,0.0366 -0.47656,0.16797 -0.5332,0.32953 -1.86914,4.14404 -1.86914,5.33594 0,0.48707 -0.39642,0.96476 -0.91211,1.09961 -0.57475,0.15031 -0.83749,0.50988 -0.70899,0.9707 0.11211,0.4021 0.34444,1.43918 0.51563,2.30469 0.17118,0.86552 0.40816,1.73507 0.52539,1.93359 0.11722,0.19856 0.4364,0.28681 0.71094,0.19531 0.42646,-0.14215 0.83313,-1.2799 1.72265,-4.82617 0.093,-0.37093 -0.0835,-0.6243 -0.39258,-0.5625 -0.85348,0.1707 -0.66883,-2.08025 0.35547,-4.33789 0.66517,-1.46614 0.84152,-2.21897 0.5293,-2.28125 z"
       id="path4843-2"
       inkscape:connector-curvature="0" />
    <path
       style="fill:#e6e6e6;fill-opacity:0.97647059"
       d="m 265.36844,290.44853 c -0.41245,0.25491 3.18118,4.68126 3.80078,4.68164 0.2001,1.2e-4 0.23878,-0.20192 0.0859,-0.44921 -0.15283,-0.24729 -0.0183,-0.44922 0.29883,-0.44922 0.92382,0 5.4482,5.03984 6.58789,7.33789 0.9328,1.88091 1.88086,2.74807 1.88086,1.72265 0,-0.87367 -3.81334,-6.18198 -5.90039,-8.21484 -1.23948,-1.20729 -2.02072,-2.19531 -1.73633,-2.19531 0.28437,0 0.44312,-0.21952 0.35352,-0.48828 -0.20026,-0.60076 -4.8322,-2.27837 -5.3711,-1.94532 z"
       id="path4841-4"
       inkscape:connector-curvature="0" />
    <path
       style="fill:#e6e6e6;fill-opacity:0.97647059;opacity:0.99"
       d="m 262.61454,278.68291 -0.10352,29.26172 -3.37305,0 -3.37109,0 -0.0957,-10.79102 c -0.0517,-5.93496 -0.10113,-13.07839 -0.11133,-15.875 -0.0119,-3.27089 -0.17952,-4.9854 -0.46875,-4.80664 -0.24729,0.15283 -0.44922,1.78742 -0.44922,3.63281 0,3.23 -0.046,3.37434 -1.23633,3.89258 -2.80423,1.22093 -11.38654,6.78049 -12.59961,8.16211 -2.73352,3.1133 -4.14843,7.59098 -4.14844,13.125 l 0,2.83594 -4.04307,0.96889 c 0,0 -0.25254,0.40001 0.0631,0.55785 6.93276,0.65934 3.38428,-0.47786 4.27095,0.0123 0.24715,0.24715 1.46562,5.18084 1.49024,6.0332 -2.00437,0.24528 -5.82433,1.66616 -5.82433,1.66616 0.50904,0.76876 2.47155,-0.15914 6.83995,0.0272 l 0.73633,1.82227 c 1.97617,4.88395 8.06022,12.27694 12.54101,15.24219 l 1.81446,1.20117 -0.0645,5.99416 0.26097,4.9918 0.92606,-0.8929 c 0,0 0.32272,-1.565 0.32272,-4.2884 0,0 0.0439,-5.04042 0.78516,-4.75583 0.43275,0.16616 1.95112,0.62606 3.37304,1.02148 l 2.58594,0.71875 0,3.3535 -0.15244,3.1884 1.05804,-0.5357 c -0.0713,-0.2292 0.10237,-2.0876 0.0835,-3.4519 0.61868,-5.02649 -0.45579,3.83844 0.21796,-1.01524 0.22698,-1.49435 0.40257,-1.68554 1.53906,-1.68554 1.91585,0 4.68167,-1.22356 8.94336,-3.95313 7.3461,-4.70512 14.74972,1.23194 15.46219,-5.39147 l -4.89578,-11.56361 5.11118,-0.91388 c 0.26169,-0.55168 -1.78906,-0.57226 -1.78906,-0.57226 -6.0393,0.53075 0.82857,0.36307 -26.87681,0.36307 l -1.16797,-1.01172 c -1.42319,-1.23317 -2.5624,-4.28977 -1.99414,-5.35156 24.06341,-1.1518 -6.46073,-2.18658 25.54568,-0.83003 0.0895,-0.55623 -0.0533,-0.3956 -0.29958,-0.80474 l -2.03125,-4.28711 c -1.11694,-2.35789 -2.69616,-5.2627 -3.50977,-6.45508 -3.20979,-4.7041 -9.66908,-10.4846 -13.22851,-11.83789 l -1.16993,-0.44531 0.38867,-3.29297 c -0.60093,-4.28133 -0.47768,-3.03926 -1.35546,-3.26367 z m -9.20899,6.68945 c 1.31129,-0.53031 1.27053,0.9197 1.10547,6.72266 -0.10727,3.77117 -0.42456,7.84891 -0.70508,9.06055 -1.36509,5.89616 2.7613,14.99482 8.57813,18.9121 4.54521,3.06093 9.22289,3.12921 11.89843,0.17383 2.88653,-3.18843 2.68763,-3.07926 5.6504,-3.07226 3.87975,0.01 4.0052,0.13491 3.46484,3.49023 -0.24658,1.53113 1.87793,6.32529 1.63452,6.96551 -0.92623,2.43616 -5.62587,1.96274 -7.78882,3.13996 -10.42919,5.67628 -26.32734,-6.49003 -30.70312,-23.49609 -0.79974,-3.10828 -0.94336,-4.6596 -0.76953,-8.31641 0.30308,-6.37609 1.91885,-9.83749 5.82617,-12.47656 0.78325,-0.52903 1.3715,-0.92675 1.80859,-1.10352 z m 10.22852,1.56641 1.20898,0.30469 c 2.46597,0.61892 7.8039,5.01313 10.76953,8.86718 2.2535,2.9286 6.00586,9.96443 6.00586,11.25977 0,0.67533 -0.41137,0.79883 -2.66601,0.79883 l -2.66602,0 -1.5918,-3.3086 c -1.92378,-3.99972 -5.42959,-7.71779 -8.71875,-9.24609 l -2.34179,-1.08789 0,-3.79297 z m -17.21485,2.98047 c 0.0332,0.0867 -0.1326,0.40123 -0.46679,1.02148 -1.41741,2.63067 -1.60452,3.53569 -1.79688,8.68555 -0.0785,2.10196 0.10005,4.7598 0.39649,5.90625 0.31515,1.2188 0.37755,2.33868 0.15039,2.69726 -0.21369,0.33728 -0.38868,0.81521 -0.38867,1.0625 0,0.24729 0.17412,0.17536 0.38671,-0.16015 0.28668,-0.45246 0.47107,-0.47333 0.71289,-0.082 0.17931,0.29014 0.20676,0.64669 0.0606,0.79297 -0.14626,0.14625 -0.0246,0.5592 0.27149,0.91601 0.29613,0.35681 0.58081,0.93874 0.63281,1.29297 0.052,0.35423 0.51411,1.44486 1.02539,2.42578 0.51129,0.98091 0.83056,1.78516 0.70898,1.78516 -0.12159,0 0.33562,0.62525 1.01758,1.39062 0.68195,0.76538 1.24024,1.58449 1.24024,1.82031 0,0.45849 2.84282,4.12676 4.75586,6.13672 1.24396,1.30699 7.09017,5.60654 7.83398,5.76172 0.24729,0.0516 1.25889,0.45261 2.24805,0.89063 0.98916,0.43803 2.20268,0.86286 2.69726,0.94336 0.49458,0.0805 1.7787,0.2959 2.85352,0.48046 l 1.95508,0.33594 -2.4043,1.30274 c -1.91173,1.03513 -3.04778,1.31963 -5.55078,1.39453 -3.33613,0.0999 -6.56857,-0.52955 -7.49219,-1.46094 -0.30654,-0.30911 -0.87062,-0.56345 -1.25391,-0.56445 -0.3833,-10e-4 -1.33151,-0.59693 -2.10742,-1.32422 -0.77591,-0.72729 -1.53411,-1.19831 -1.68555,-1.04688 -0.15143,0.15143 -0.27539,0.0258 -0.27539,-0.27734 0,-0.30313 -0.17141,-0.4439 -0.38085,-0.31445 -0.53652,0.33158 -2.85366,-2.18625 -2.43555,-2.64649 0.18893,-0.20793 0.11789,-0.24924 -0.15821,-0.0918 -0.27606,0.15746 -0.8838,-0.14843 -1.3496,-0.67969 -0.55487,-0.63284 -0.61373,-0.83952 -0.17188,-0.59961 0.37094,0.20139 -0.28632,-0.63124 -1.46094,-1.84961 -2.06074,-2.13746 -2.7415,-3.25629 -1.57422,-2.58984 0.30912,0.17649 -0.0342,-0.3182 -0.76171,-1.09961 -0.72756,-0.78142 -1.37285,-1.7703 -1.43555,-2.19727 -0.0627,-0.42696 -0.32714,-0.84865 -0.58789,-0.93555 -0.26076,-0.0869 -0.47461,-0.5328 -0.47461,-0.99218 0,-0.45938 -0.21633,-0.96956 -0.48047,-1.13282 -0.26417,-0.16325 -0.37662,-0.56653 -0.25,-0.89648 0.12661,-0.32995 0.0366,-0.66359 -0.19922,-0.74219 -0.23584,-0.0786 -0.50124,-0.54725 -0.58984,-1.04101 -0.36937,-2.05905 -0.88603,-4.54002 -1.07813,-5.16993 -0.46388,-1.52105 -0.0934,-10.04988 0.46094,-10.60351 0.18547,-0.18522 0.33789,-0.68239 0.33789,-1.10547 0,-0.42309 0.30289,-1.02223 0.67383,-1.33008 0.37093,-0.30785 0.67578,-0.91874 0.67578,-1.35742 0,-0.94329 3.01118,-3.72385 3.62305,-3.3457 0.23248,0.14369 0.42187,0.095 0.42187,-0.10742 0,-0.20241 0.42466,-0.63311 0.94336,-0.95704 0.46145,-0.28818 0.69336,-0.42844 0.72656,-0.34179 z m 20.14454,8.06836 c 0.50952,-0.19553 1.49443,0.46258 3.17578,2.12304 1.34047,1.32382 2.4375,2.63963 2.4375,2.92383 0,0.28422 0.37285,1.00011 0.82812,1.58984 0.45526,0.58977 0.94222,1.52759 1.08203,2.08399 0.24744,0.98474 0.15917,1.01172 -3.27539,1.01172 -1.94057,0 -3.65185,-0.20388 -3.80469,-0.45117 -0.15282,-0.24729 -0.12782,-0.44922 0.0566,-0.44922 0.18448,0 -0.23503,-0.59516 -0.93165,-1.32227 -0.91327,-0.95301 -1.16853,-1.5482 -0.91601,-2.13476 0.19267,-0.44752 0.37158,-1.31927 0.39648,-1.9375 0.0249,-0.61822 0.20815,-1.37643 0.40821,-1.68555 0.20006,-0.30911 0.23788,-0.7666 0.084,-1.01563 -0.15391,-0.24904 0.0527,-0.58043 0.45899,-0.73632 z m -2.47852,7.70703 c 0.24775,-0.15312 0.65837,0.26814 0.91211,0.93554 0.56777,1.49334 0.32768,1.81597 -0.63477,0.85352 -0.83554,-0.83555 -0.92146,-1.39097 -0.27734,-1.78906 z"
       id="path4830-3"
       inkscape:connector-curvature="0"
       sodipodi:nodetypes="cccccscscssccccccccccccccccccccccssccccccccccscccccssssscssscsssccssscccccccsssccccccscscsscsscccccsscscccscsscscsccccscscscsscccsscsscsccsccccssss" />
  </g>
</svg>
